<?xml version="1.0" encoding="UTF-8"?>
<svg xmlns="http://www.w3.org/2000/svg" xmlns:xlink="http://www.w3.org/1999/xlink" viewBox="0 0 480 480" width="480px" height="480px">
<g id="surface2851281">
<path style=" stroke:none;fill-rule:nonzero;fill:rgb(100%,100%,100%);fill-opacity:1;" d="M 218 42 C 126 52 52 126 42 216 C 32 310 86 394 168 426 C 174 428 180 424 180 416 L 180 384 C 180 384 172 386 162 386 C 134 386 122 362 120 348 C 118 340 114 334 108 328 C 102 326 100 326 100 324 C 100 320 106 320 108 320 C 120 320 130 334 134 340 C 144 356 156 360 162 360 C 170 360 176 358 180 356 C 182 342 188 328 200 320 C 154 310 120 284 120 240 C 120 218 130 196 144 180 C 142 176 140 166 140 152 C 140 144 140 132 146 120 C 146 120 174 120 202 146 C 212 142 226 140 240 140 C 254 140 268 142 280 146 C 306 120 336 120 336 120 C 340 132 340 144 340 152 C 340 168 338 176 336 180 C 350 196 360 216 360 240 C 360 284 326 310 280 320 C 292 330 300 348 300 366 L 300 418 C 300 424 306 430 314 428 C 388 398 440 326 440 242 C 440 122 338 28 218 42 Z M 218 42 "/>
</g>
</svg>
