<?xml version="1.0" encoding="UTF-8"?>
<svg xmlns="http://www.w3.org/2000/svg" xmlns:xlink="http://www.w3.org/1999/xlink" viewBox="0 0 480 480" width="480px" height="480px">
<g id="surface2853503">
<path style=" stroke:none;fill-rule:nonzero;fill:rgb(100%,100%,100%);fill-opacity:1;" d="M 120 140 C 64.78125 140 20 184.78125 20 240 C 20 295.21875 64.78125 340 120 340 L 200 340 L 200 300 L 120 300 C 86.859375 300 60 273.140625 60 240 C 60 206.859375 86.859375 180 120 180 L 200 180 L 200 140 Z M 280 140 L 280 180 L 360 180 C 393.140625 180 420 206.859375 420 240 C 420 273.140625 393.140625 300 360 300 L 280 300 L 280 340 L 360 340 C 415.21875 340 460 295.21875 460 240 C 460 184.78125 415.21875 140 360 140 Z M 140 220 L 140 260 L 340 260 L 340 220 Z M 140 220 "/>
</g>
</svg>
