<?xml version="1.0" encoding="UTF-8"?>
<svg xmlns="http://www.w3.org/2000/svg" xmlns:xlink="http://www.w3.org/1999/xlink" viewBox="0 0 480 480" width="480px" height="480px">
<g id="surface2851778">
<path style=" stroke:none;fill-rule:nonzero;fill:rgb(100%,100%,100%);fill-opacity:1;" d="M 380 60 L 100 60 C 77.898438 60 60 77.898438 60 100 L 60 380 C 60 402.101562 77.898438 420 100 420 L 380 420 C 402.101562 420 420 402.101562 420 380 L 420 100 C 420 77.898438 402.101562 60 380 60 Z M 180 340 L 129.539062 340 L 129.539062 200 L 180 200 Z M 153.878906 174.339844 C 138.460938 174.339844 128.160156 164.058594 128.160156 150.339844 C 128.160156 136.621094 138.441406 126.339844 155.578125 126.339844 C 171 126.339844 181.300781 136.621094 181.300781 150.339844 C 181.300781 164.058594 171.019531 174.339844 153.878906 174.339844 Z M 360 340 L 311.160156 340 L 311.160156 263.480469 C 311.160156 242.320312 298.140625 237.441406 293.261719 237.441406 C 288.378906 237.441406 272.101562 240.699219 272.101562 263.480469 C 272.101562 266.738281 272.101562 340 272.101562 340 L 221.640625 340 L 221.640625 200 L 272.101562 200 L 272.101562 219.539062 C 278.601562 208.140625 291.621094 200 316.039062 200 C 340.460938 200 360 219.539062 360 263.480469 Z M 360 340 "/>
</g>
</svg>
